<?xml version="1.0" standalone="no"?>
<!DOCTYPE svg PUBLIC "-//W3C//DTD SVG 20010904//EN"
 "http://www.w3.org/TR/2001/REC-SVG-20010904/DTD/svg10.dtd">
<svg version="1.0" xmlns="http://www.w3.org/2000/svg"
 width="225.000000pt" height="225.000000pt" viewBox="0 0 225.000000 225.000000"
 preserveAspectRatio="xMidYMid meet">

<g transform="translate(0.000000,225.000000) scale(0.100000,-0.100000)"
fill="#000000" stroke="none">
<path d="M823 1949 c-5 -5 -25 -18 -44 -27 -36 -18 -52 -55 -37 -84 10 -21
-11 -25 -31 -5 -10 10 -17 6 -37 -16 -29 -34 -31 -60 -4 -87 30 -30 75 -25
170 20 47 22 93 40 102 40 25 0 48 -28 48 -58 0 -19 3 -23 9 -13 11 17 30 6
42 -26 6 -17 5 -32 -6 -53 -30 -57 -101 -86 -178 -71 -27 5 -44 5 -41 -1 8
-13 -76 -47 -105 -41 -43 7 -73 43 -69 80 2 17 0 29 -4 27 -4 -3 -8 -21 -8
-41 0 -27 8 -42 34 -67 18 -17 45 -52 61 -79 15 -26 37 -54 48 -62 47 -33 183
-6 252 49 l30 24 3 125 2 124 -43 47 c-38 40 -49 46 -85 46 -24 0 -66 -12
-104 -30 -101 -48 -174 -36 -147 24 13 27 24 33 33 17 9 -13 87 -20 110 -10
49 23 71 39 54 39 -13 0 -18 8 -18 29 0 19 -8 35 -21 44 l-20 15 23 16 c15 11
18 16 7 16 -8 0 -20 -5 -26 -11z m27 -84 c0 -8 -4 -15 -9 -15 -13 0 -22 16
-14 24 11 11 23 6 23 -9z m190 -320 c0 -26 -7 -59 -15 -74 -29 -57 -186 -102
-237 -69 -13 9 -33 34 -46 56 l-22 40 32 8 c18 3 48 17 67 30 19 13 39 21 44
17 21 -13 100 -3 131 16 17 12 34 21 39 21 4 0 7 -20 7 -45z"/>
<path d="M644 1693 c-13 -52 72 -81 156 -53 16 6 2 7 -37 3 -77 -7 -119 13
-109 53 4 13 4 24 1 24 -2 0 -8 -12 -11 -27z"/>
<path d="M1172 1698 c-34 -43 -51 -262 -34 -442 10 -106 10 -109 -11 -127 -12
-10 -25 -18 -28 -19 -3 0 -11 25 -18 55 -14 64 -46 95 -97 95 -41 0 -63 -29
-71 -91 -4 -24 -17 -58 -30 -77 -19 -29 -23 -48 -23 -109 0 -69 2 -77 29 -104
40 -39 101 -41 136 -3 25 27 65 132 65 170 0 30 58 73 71 53 5 -8 9 -24 9 -35
0 -45 42 -156 71 -189 36 -41 78 -46 108 -16 25 25 61 138 68 214 3 31 10 57
14 57 5 0 9 -7 9 -15 0 -8 13 -29 28 -46 32 -36 72 -41 101 -15 25 23 72 129
78 177 3 22 10 39 14 39 5 0 9 8 10 18 0 12 3 10 10 -8 6 -13 8 -34 5 -46 -9
-36 52 -75 102 -66 35 7 57 50 86 175 15 62 29 120 32 130 3 11 0 17 -9 17
-11 0 -20 -24 -31 -77 -21 -98 -41 -155 -68 -189 -20 -24 -22 -25 -34 -9 -7 9
-18 39 -24 66 -11 46 -11 50 14 79 36 44 61 127 47 162 -14 37 -51 45 -92 21
-36 -20 -57 -67 -58 -126 -1 -54 -51 -246 -74 -285 -12 -19 -26 -32 -35 -30
-47 9 -97 328 -52 328 5 0 13 -18 16 -40 8 -47 22 -60 39 -36 19 25 -1 79 -37
100 -26 16 -31 16 -53 2 -31 -21 -42 -61 -49 -189 -11 -179 -42 -333 -73 -358
-13 -11 -18 -10 -33 8 -21 27 -45 97 -59 179 -9 48 -8 76 3 130 8 38 22 128
31 199 21 156 12 231 -32 265 -29 23 -56 26 -71 8z m61 -206 c-3 -203 -17
-259 -29 -117 -16 195 -8 313 19 286 8 -9 11 -58 10 -169z m527 12 c12 -29 -4
-97 -27 -115 -11 -9 -13 -1 -13 42 0 93 20 128 40 73z m-745 -297 c8 -19 17
-57 21 -85 6 -50 6 -51 -21 -58 -38 -10 -55 16 -55 84 0 88 29 120 55 59z
m-12 -161 l38 0 -6 -40 c-8 -49 -35 -106 -58 -120 -29 -18 -42 9 -46 96 -3 76
-2 80 15 72 11 -4 36 -8 57 -8z"/>
<path d="M609 1354 c-43 -96 -97 -367 -100 -495 l-1 -54 -10 40 c-5 22 -11
125 -14 230 -5 194 -8 205 -46 205 -35 0 -42 -38 -40 -193 2 -157 26 -336 62
-467 26 -93 53 -118 93 -87 14 11 15 17 1 67 -30 114 -9 420 42 611 15 53 30
102 35 110 24 40 49 -57 69 -276 10 -102 10 -151 0 -230 -6 -55 -12 -107 -13
-116 -2 -21 -63 -24 -93 -4 -35 22 -41 18 -14 -10 29 -31 75 -44 113 -34 79
22 112 150 97 387 -7 126 -13 158 -38 224 -38 99 -66 138 -98 138 -20 0 -29
-9 -45 -46z m-182 -387 c-2 -23 -3 -1 -3 48 0 50 1 68 3 42 2 -26 2 -67 0 -90z"/>
<path d="M1698 1080 c-11 -7 -19 -30 -23 -65 -6 -48 -12 -58 -36 -70 -15 -8
-31 -20 -34 -26 -4 -6 7 -3 25 6 27 14 34 15 42 3 11 -16 3 -130 -14 -183
l-12 -40 -6 55 c-5 53 -6 55 -32 53 -22 -1 -28 3 -28 18 0 12 -5 19 -12 17 -8
-3 -14 -26 -14 -60 -2 -53 -25 -118 -43 -118 -18 0 -17 52 1 90 22 45 18 70
-10 70 -25 0 -40 -19 -48 -61 -7 -36 -34 -89 -45 -89 -4 0 -17 20 -29 45 -24
50 -42 51 -38 1 1 -21 -7 -44 -22 -66 -22 -31 -24 -32 -38 -14 -8 11 -19 32
-24 47 -10 26 -12 27 -27 13 -13 -13 -13 -20 -4 -36 7 -10 9 -21 4 -24 -5 -3
-12 -26 -15 -50 -4 -25 -15 -55 -26 -68 l-18 -23 -7 28 c-5 19 -2 41 10 66 19
44 17 74 -6 79 -28 5 -49 -26 -49 -73 0 -101 53 -153 85 -82 8 17 19 52 25 76
11 43 12 43 27 21 14 -20 14 -25 -2 -55 -30 -54 2 -92 50 -61 27 18 33 53 15
87 -9 15 -6 26 10 48 11 16 20 35 20 42 0 8 7 6 19 -5 20 -18 20 -19 -2 -62
-19 -40 -20 -46 -6 -60 22 -21 63 -9 78 22 8 19 8 32 -3 57 -12 30 -11 36 5
56 20 24 18 25 34 -24 6 -21 52 -19 63 3 5 9 15 41 22 70 14 60 40 73 40 19 0
-82 56 -86 76 -6 l11 44 12 -41 c11 -39 33 -60 51 -49 7 4 28 83 46 175 12 58
-15 0 -31 -67 -9 -40 -21 -73 -25 -73 -9 0 -18 52 -27 155 -5 63 -4 75 9 75 9
0 21 7 28 15 11 14 10 14 -15 5 l-27 -10 7 55 c3 30 5 55 3 55 -2 0 -11 -5
-20 -10z m-196 -302 c-10 -22 -11 -21 -11 12 -1 26 2 31 11 22 8 -8 8 -17 0
-34z m-332 -142 c0 -14 -4 -28 -10 -31 -6 -4 -10 7 -10 24 0 17 5 31 10 31 6
0 10 -11 10 -24z m240 -35 c0 -20 -27 -48 -37 -38 -9 9 18 68 28 61 5 -3 9
-13 9 -23z m-117 -62 c-3 -11 -10 -22 -15 -25 -17 -11 -21 5 -8 36 14 33 32
24 23 -11z"/>
<path d="M1784 955 c-4 -9 6 -34 21 -56 27 -41 27 -42 10 -80 -21 -45 -14 -69
19 -69 47 0 71 53 46 101 -8 15 -6 25 11 48 12 16 19 35 17 42 -3 8 -12 0 -23
-19 -23 -39 -33 -37 -58 11 -20 40 -34 46 -43 22z m57 -178 c-18 -18 -25 1
-11 30 l14 28 4 -24 c2 -13 -1 -28 -7 -34z"/>
<path d="M999 753 c-18 -49 -39 -146 -39 -188 0 -30 -3 -36 -10 -25 -5 8 -10
50 -10 92 0 75 -12 106 -31 77 -20 -32 4 -278 32 -332 22 -40 31 -8 34 123 3
138 26 253 46 233 14 -14 31 -173 24 -228 -8 -63 -20 -78 -49 -64 -20 10 -20
10 -2 -5 29 -23 53 -19 73 11 14 21 18 48 18 128 0 87 -3 107 -25 150 -30 59
-46 66 -61 28z"/>
</g>
</svg>
